<svg width="1142" height="537" viewBox="0 0 1142 537" fill="none" xmlns="http://www.w3.org/2000/svg">
<g clip-path="url(#clip0_9_2)">
<rect width="1142" height="537" fill="#F0DBB2"/>
<path d="M-7 509.206C27.6879 476.58 127.681 421.114 250.149 460.266C372.617 499.418 461.716 476.58 490.957 460.266C547.146 440.232 662.103 413.902 672.424 468.852C682.744 523.803 762.153 486.024 800.568 460.266C830.382 439.088 890.699 409.437 893.451 460.266C896.891 523.803 925.272 410.468 980.314 413.043C1035.36 415.619 1242 534.409 1142 561.581C1142 578.753 1019.88 760.776 934.733 742.746C849.59 724.715 50.622 683.502 36.0015 669.765C24.3051 658.775 2.46033 558.147 -7 509.206Z" fill="#D1BB8F"/>
<path d="M136.378 450C138.531 448.815 142.998 445.022 143.643 439.333C144.289 433.644 143.913 428.074 143.643 426C140.414 427.778 134.441 435.067 136.378 450Z" fill="#D1BB8F"/>
<path d="M166.574 447C164.153 445.914 159.128 442.437 158.401 437.222C157.675 432.007 158.098 426.901 158.401 425C162.034 426.63 168.754 433.311 166.574 447Z" fill="#D1BB8F"/>
<path d="M160.794 447.715C153.118 442.732 146.439 445.449 143.294 449.16C143.294 449.16 137.267 402.195 147.114 401.382C156.901 400.574 159.872 436.552 160.777 447.517L160.794 447.715Z" fill="#D1BB8F"/>
<circle cx="150.5" cy="427.5" r="4.5" fill="#F0DBB2"/>
<path d="M189.943 441.325C188.581 442.995 186.336 441.292 187.188 439.205C188.039 437.118 192.581 436.77 194 437.118C193.432 438.161 191.306 439.655 189.943 441.325Z" fill="#D1BB8F"/>
<path d="M201.352 438.421C203.185 439.074 203.603 441.16 201.68 441.12C199.758 441.08 196.347 438.573 195.992 437.155C197.015 437.305 199.519 437.767 201.352 438.421Z" fill="#D1BB8F"/>
<circle cx="196" cy="433" r="5" fill="#D1BB8F"/>
<path d="M193.286 448.154H189C189.571 443.922 191.743 435.796 195.857 437.15C199.971 438.505 201 445.614 201 449H196.714C196.714 447.871 196.371 445.445 195 444.768C193.629 444.091 193.286 446.743 193.286 448.154Z" fill="#D1BB8F"/>
<ellipse cx="822" cy="302.5" rx="62" ry="61.5" fill="#D1BB8F"/>
<ellipse cx="720" cy="315.5" rx="13" ry="12.5" fill="#D1BB8F"/>
<circle cx="740.5" cy="339.5" r="4.5" fill="#D1BB8F"/>
<circle cx="652.5" cy="313.5" r="4.5" fill="#D1BB8F"/>
<path d="M502.5 487L512 431H629.5L640 488C586.561 500.206 556.45 499.866 502.5 487Z" fill="#F0DBB2"/>
<ellipse cx="571.305" cy="335.949" rx="69.3051" ry="11.9492" fill="#2D2945"/>
<path d="M502 336.746C507.178 356.528 514.427 414.575 502 488.5C507.842 481.994 514.029 453.449 515.941 415.212C517.853 376.975 509.435 348.96 502 336.746Z" fill="#2D2945"/>
<path d="M640.487 488.5C635.309 468.718 628.06 410.671 640.487 336.746C634.645 343.251 628.458 371.797 626.546 410.034C624.634 448.271 633.052 476.285 640.487 488.5Z" fill="#2D2945"/>
<path d="M570.907 358.254L611.265 381.555V428.157L570.907 451.458L530.548 428.157V381.555L570.907 358.254Z" fill="#DCC69C"/>
<circle cx="570.907" cy="417.602" r="19.7034" stroke="#2D2945" stroke-width="6"/>
<circle cx="582.856" cy="397.686" r="19.7034" stroke="#2D2945" stroke-width="6"/>
<circle cx="560.551" cy="397.686" r="19.7034" stroke="#2D2945" stroke-width="6"/>
<rect x="611" y="447" width="47" height="47" fill="#F0DBB2"/>
<rect x="611" y="446" width="5" height="48" fill="#D1BB8F"/>
<path d="M661 459L611 447V432L661 445.5V459Z" fill="#2D2945"/>
<rect x="629" y="477" width="11" height="17" fill="#2D2945"/>
</g>
<defs>
<clipPath id="clip0_9_2">
<rect width="1142" height="537" fill="white"/>
</clipPath>
</defs>
</svg>
