<svg width="256" height="256" viewBox="0 0 256 256" fill="none" xmlns="http://www.w3.org/2000/svg">
<rect width="256" height="256" fill="#F0DBB2"/>
<ellipse cx="128.305" cy="57.9492" rx="69.3051" ry="11.9492" fill="#2D2945"/>
<path d="M59 58.7458C64.178 78.5282 71.4271 136.575 59 210.5C64.8418 203.994 71.0288 175.449 72.9407 137.212C74.8525 98.9746 66.435 70.9604 59 58.7458Z" fill="#2D2945"/>
<path d="M197.487 210.5C192.309 190.718 185.06 132.671 197.487 58.7458C191.645 65.2514 185.458 93.7966 183.546 132.034C181.634 170.271 190.052 198.285 197.487 210.5Z" fill="#2D2945"/>
<path d="M127.907 80.2542L168.265 103.555V150.157L127.907 173.458L87.5485 150.157V103.555L127.907 80.2542Z" fill="#DCC69C"/>
<circle cx="127.907" cy="139.602" r="19.7034" stroke="#2D2945" stroke-width="6"/>
<circle cx="139.856" cy="119.686" r="19.7034" stroke="#2D2945" stroke-width="6"/>
<circle cx="117.551" cy="119.686" r="19.7034" stroke="#2D2945" stroke-width="6"/>
</svg>
